PathFileType	4	(X/Y/Z)	C:\Users\Basilio\Documents\Thesis Gigler\squatting_fais\c3dfiles\047\SLS_pre_front1\markers_experimental.trc
DataRate	CameraRate	NumFrames	NumMarkers	Units	OrigDataRate	OrigDataStartFrame	OrigNumFrames
200.000000	200.000000	4	60	mm	200.000000	302	1209
Frame#	Time	FHD			LBHD			RBHD			C7			T10			CLAV			LSHO			LUUPA			LMUPA			LDUPA			LLEP			LRAD			LUL			LRFIN			RSHO			RUPA1			RMUPA			RDUPA			RLEP			RMEP			RRAD			RUL			RUFIN			LASI			RASI			USACR			LSACR			RSACR			LTHI1			LTHI2			LTHI3			LTHI4			LLFC			LMFC			LTIB1			LTIB2			LTIB3			LTIB4			LLMAL			LMMAL			LMT1			LMT2			LMT5			RTHI			RTHI2			RTHI3			RTHI4			RLFC			RMFC			RTIB1			RTIB2			RTIB3			RTIB4			RLMAL			RMMAL			RHEE			RMT1			RMT2			RMT5			LMEP			
		X1	Y1	Z1	X2	Y2	Z2	X3	Y3	Z3	X4	Y4	Z4	X5	Y5	Z5	X6	Y6	Z6	X7	Y7	Z7	X8	Y8	Z8	X9	Y9	Z9	X10	Y10	Z10	X11	Y11	Z11	X12	Y12	Z12	X13	Y13	Z13	X14	Y14	Z14	X15	Y15	Z15	X16	Y16	Z16	X17	Y17	Z17	X18	Y18	Z18	X19	Y19	Z19	X20	Y20	Z20	X21	Y21	Z21	X22	Y22	Z22	X23	Y23	Z23	X24	Y24	Z24	X25	Y25	Z25	X26	Y26	Z26	X27	Y27	Z27	X28	Y28	Z28	X29	Y29	Z29	X30	Y30	Z30	X31	Y31	Z31	X32	Y32	Z32	X33	Y33	Z33	X34	Y34	Z34	X35	Y35	Z35	X36	Y36	Z36	X37	Y37	Z37	X38	Y38	Z38	X39	Y39	Z39	X40	Y40	Z40	X41	Y41	Z41	X42	Y42	Z42	X43	Y43	Z43	X44	Y44	Z44	X45	Y45	Z45	X46	Y46	Z46	X47	Y47	Z47	X48	Y48	Z48	X49	Y49	Z49	X50	Y50	Z50	X51	Y51	Z51	X52	Y52	Z52	X53	Y53	Z53	X54	Y54	Z54	X55	Y55	Z55	X56	Y56	Z56	X57	Y57	Z57	X58	Y58	Z58	X59	Y59	Z59	X60	Y60	Z60	

303	1.51	-219.4518432617188	1720.154418945313	-1072.34423828125	-398.3327636718751	1695.776489257813	-1104.155151367188	-380.7918090820313	1701.398315429688	-956.668640136719	-434.6017456054689	1510.689697265625	-1032.520385742188	-426.4975585937501	1193.76953125	-1020.828247070313	-278.3673095703126	1464.526489257813	-1047.902465820313	-348.4660644531251	1496.809326171875	-1194.810302734375	-229.3149414062501	1414.321044921875	-1297.778930664063	-202.1881713867188	1454.786865234375	-1287.6611328125	-160.5707550048828	1416.873657226563	-1307.7197265625	-97.12486267089847	1432.760620117188	-1312.809692382813	166.2994384765625	1427.820190429688	-1254.169311523438	160.2348175048828	1431.2861328125	-1331.311767578125	251.5042419433594	1446.379150390625	-1278.951538085938	-338.1824951171876	1511.262329101563	-900.4113769531252	-195.9629211425782	1439.489624023438	-806.4700927734377	-169.8703308105469	1474.082763671875	-829.3833007812502	-125.8477096557617	1436.779296875	-812.1904907226565	-59.32724761962892	1449.811279296875	-825.4051513671877	-57.56602096557619	1384.98779296875	-876.416198730469	187.7082214355469	1449.823364257813	-930.9665527343752	195.6845092773438	1460.17919921875	-858.7784423828127	272.3618469238282	1470.810424804688	-930.8817138671877	-219.4823150634766	990.8248291015627	-1114.6025390625	-225.4137725830079	1011.651123046875	-883.650573730469	-414.6622314453126	1056.22216796875	-1011.05419921875	-412.1968078613282	1022.553771972656	-1037.687255859375	-417.4367065429689	1026.512939453125	-978.803894042969	-294.7402343750001	825.2088623046877	-1176.096313476563	-255.1238403320313	751.0257568359376	-1171.574584960938	-207.1813354492188	758.9445190429689	-1161.276000976563	-280.2276306152344	695.8219604492189	-1163.264526367188	-297.9857177734376	522.8790283203126	-1121.10107421875	-264.5107116699219	519.3178100585939	-1002.111450195313	-271.2944335937501	339.9157714843751	-1017.801635742188	-284.2784423828126	289.6796264648438	-1090.345336914063	-266.3201293945313	289.5547180175782	-1045.428588867188	-281.4099426269532	215.5725555419922	-1011.928161621094	-336.2454528808594	117.8967361450196	-1050.438110351563	-312.9967956542969	136.5089569091797	-965.5113525390627	-191.9285888671875	63.0736770629883	-978.8631591796877	-190.0179443359375	58.96300506591798	-1023.316589355469	-237.591293334961	43.87802124023438	-1068.9794921875	-224.5217437744141	841.9461669921877	-786.5278320312502	-160.4279937744141	825.3862915039065	-793.7598266601565	-137.6083221435547	846.9647216796877	-801.6085205078127	-127.4700927734375	748.5048217773439	-793.259460449219	-28.59159660339356	638.8161621093751	-810.473815917969	-11.28831577301026	636.6386108398439	-934.1065673828127	70.02381134033205	550.2111206054689	-828.6250000000002	65.22171020507814	450.6838989257814	-781.8494873046877	100.2846298217774	472.9983825683595	-801.9077758789065	131.7550201416016	435.6317443847657	-836.096862792969	160.2479553222657	278.4841613769532	-797.1872558593752	170.5880432128907	296.6425781250001	-886.706237792969	120.6247024536133	220.4338836669922	-843.278991699219	318.1782226562501	284.7907714843751	-879.3965454101565	322.4134521484376	295.7728271484376	-834.735290527344	292.6014404296876	258.0168151855469	-774.8359985351565	-84.95513916015626	1374.890991210938	-1259.7529296875	
304	1.515	-219.2852783203126	1720.295043945313	-1072.397827148438	-398.440643310547	1695.764038085938	-1104.144409179688	-380.8245239257813	1701.456176757813	-956.7236938476565	-434.6300354003907	1510.69482421875	-1032.53271484375	-426.4630737304689	1193.827514648438	-1020.8212890625	-278.3623962402344	1464.570678710938	-1047.939819335938	-348.4967346191407	1496.851806640625	-1194.869750976563	-229.4227600097657	1414.387329101563	-1297.867919921875	-202.268783569336	1454.796020507813	-1287.737182617188	-160.727294921875	1416.911865234375	-1307.818725585938	-97.241325378418	1432.742797851563	-1312.925537109375	166.2656402587891	1427.880737304688	-1254.301635742188	160.1481323242188	1431.315673828125	-1331.464477539063	251.3393859863282	1446.31689453125	-1278.988403320313	-338.1693115234376	1511.354248046875	-900.4702148437502	-195.926742553711	1439.657470703125	-806.5588378906252	-169.8570098876953	1474.244873046875	-829.403259277344	-125.8446044921875	1436.890502929688	-812.3723144531252	-59.33429336547853	1449.87060546875	-825.4208984375002	-57.5909767150879	1385.092041015625	-876.555603027344	187.675765991211	1449.918823242188	-931.084411621094	195.6957702636719	1460.33251953125	-858.9797363281252	272.3390197753907	1470.822387695313	-931.061218261719	-219.5008544921876	990.8470458984377	-1114.705322265625	-225.4398193359376	1011.661193847656	-883.6860351562502	-414.7864685058595	1056.178833007813	-1010.980163574219	-412.4927062988282	1022.564758300781	-1037.717041015625	-417.4043579101564	1026.561645507813	-978.7937622070315	-294.7828979492188	825.1962890625002	-1176.095458984375	-255.1423492431641	751.0353393554689	-1171.621704101563	-207.2408447265626	758.9553222656251	-1161.314331054688	-280.3012390136719	695.7800903320314	-1163.271362304688	-297.9797973632813	522.8803710937501	-1121.080810546875	-264.4261779785157	519.2745971679689	-1002.155578613281	-271.3081359863282	339.9308471679688	-1017.725036621094	-284.2592468261719	289.6548767089844	-1090.315185546875	-266.1872253417969	289.3113098144532	-1045.270263671875	-281.3919982910157	215.5197448730469	-1011.936767578125	-336.3179016113282	117.9195098876953	-1050.409423828125	-313.0117187500001	136.5068817138672	-965.4688720703127	-191.9712066650391	63.03213119506837	-978.8593750000002	-190.0043029785157	58.9728126525879	-1023.318115234375	-237.5554351806641	43.94233703613282	-1069.010009765625	-224.5977478027344	841.9660644531252	-786.3875732421877	-160.531478881836	825.4459228515627	-793.788269042969	-137.7839508056641	847.0262451171877	-801.4404907226565	-127.5843505859375	748.5819091796876	-793.3189086914065	-28.6537094116211	638.8533325195314	-810.4604492187502	-10.2571964263916	636.7988891601564	-934.0661621093752	70.01011657714845	550.2340087890626	-828.6224365234377	65.21975708007814	450.7483825683595	-781.7647094726565	100.3263168334961	473.0394592285157	-801.9624023437502	131.8167572021485	435.6538391113282	-836.091003417969	160.2393035888672	278.5004577636719	-797.2741699218752	170.6823425292969	296.7887573242188	-886.785827636719	120.7507400512696	220.4881439208985	-843.3070068359377	318.2599792480469	284.9530639648438	-879.456970214844	322.4409790039063	295.8781127929688	-834.7832641601565	292.6549682617188	258.1323242187501	-774.856140136719	-84.9298782348633	1373.777709960938	-1260.056518554688	
305	1.52	-219.5150146484376	1720.185302734375	-1072.43017578125	-398.5383605957032	1695.846069335938	-1104.161987304688	-380.8171691894532	1701.487426757813	-956.7667236328127	-434.6932678222657	1510.7490234375	-1032.48486328125	-426.6365966796876	1193.810791015625	-1020.790222167969	-278.2588500976563	1464.598754882813	-1048.063720703125	-348.5932617187501	1496.859497070313	-1194.769409179688	-229.4611053466797	1414.411865234375	-1297.953979492188	-202.2932434082032	1454.774780273438	-1287.805053710938	-160.8396301269532	1416.973510742188	-1307.844848632813	-97.28758239746097	1432.6259765625	-1313.06103515625	166.2332916259766	1427.910278320313	-1254.43505859375	160.0395965576172	1431.315063476563	-1331.644287109375	251.3093261718751	1446.439331054688	-1279.175537109375	-338.1503906250001	1511.368408203125	-900.4653930664065	-195.8631744384766	1439.782958984375	-806.7424926757815	-169.8223114013672	1474.266723632813	-829.4273071289065	-125.7890243530274	1437.007202148438	-812.507263183594	-59.32251358032228	1449.951904296875	-825.5541992187502	-57.5880699157715	1385.16357421875	-876.561950683594	187.6407165527344	1449.970703125	-931.2042236328127	195.7203216552735	1460.415161132813	-859.0870361328127	272.3494567871094	1470.872436523438	-931.1641235351565	-219.631576538086	990.8726196289065	-1114.736206054688	-225.4756927490235	1011.697937011719	-883.6979980468752	-414.8801879882814	1056.206787109375	-1011.008483886719	-412.797332763672	1022.551940917969	-1037.697875976563	-417.5147399902345	1026.517333984375	-978.7930297851565	-294.8644104003907	825.1427001953127	-1176.124877929688	-255.2085266113282	751.0199584960939	-1171.641235351563	-207.1905364990235	758.9068603515626	-1161.415161132813	-280.3944091796876	695.8079223632814	-1163.2080078125	-298.0204162597657	522.8084106445314	-1121.083251953125	-264.4060668945313	519.2908935546876	-1002.1181640625	-271.2857666015626	339.9263305664063	-1017.680847167969	-284.2078857421876	289.6513061523438	-1090.315795898438	-266.2579040527344	289.5368652343751	-1045.352661132813	-281.3717651367188	215.5371551513672	-1011.890991210938	-336.3099975585938	117.9493179321289	-1050.3779296875	-313.0014343261719	136.5037078857422	-965.4754638671877	-191.8873291015625	63.02603149414064	-978.8277587890627	-190.0315246582032	58.97921752929689	-1023.265319824219	-237.589096069336	43.93486785888673	-1068.988525390625	-224.5937042236329	842.029479980469	-786.3887939453127	-160.582748413086	825.4339599609377	-793.7425537109377	-137.8054351806641	847.0646972656252	-801.553894042969	-127.7198867797852	748.6967773437501	-793.2473754882815	-28.76473426818848	638.8742675781251	-810.5007324218752	-10.38587284088135	636.7653808593751	-934.038757324219	69.93790435791017	550.3374023437501	-828.6351318359377	65.19805908203126	450.7066040039064	-781.9282226562502	100.3993301391602	473.1237182617189	-802.100769042969	131.7693634033203	435.6793823242189	-836.0820312500002	160.5476837158203	278.7639770507813	-797.321228027344	170.9542236328125	296.9635620117188	-886.8703613281252	120.8238220214844	220.5631256103516	-843.3672485351565	318.0923767089844	285.0744628906251	-879.4038696289065	322.3750915527344	296.2693786621094	-834.8540649414065	292.6464233398438	258.1641540527344	-774.8000488281252	-85.0376434326172	1374.791259765625	-1259.839721679688	
306	1.525	-219.517074584961	1720.14990234375	-1072.486450195313	-398.4178466796876	1695.773315429688	-1104.197998046875	-380.8148498535157	1701.482543945313	-956.7988891601565	-434.6747131347657	1510.725341796875	-1032.52734375	-426.592987060547	1193.8994140625	-1020.783447265625	-278.3311462402344	1464.677001953125	-1048.030151367188	-348.6389770507813	1496.919311523438	-1194.829833984375	-229.5443878173829	1414.434326171875	-1297.968627929688	-202.4670104980469	1454.841674804688	-1287.836547851563	-160.8759002685547	1416.9453125	-1307.941284179688	-97.45063781738284	1432.766357421875	-1313.140502929688	166.4006652832032	1428.111083984375	-1254.678588867188	160.0068511962891	1431.348999023438	-1331.783447265625	251.3088531494141	1446.460083007813	-1279.367431640625	-338.1609802246094	1511.420043945313	-900.459899902344	-195.9032592773438	1439.800415039063	-806.5852661132815	-169.8211212158203	1474.29638671875	-829.3865966796877	-125.7666015625	1437.105590820313	-812.5030517578127	-59.30854415893556	1450.0263671875	-825.666198730469	-57.63547515869142	1385.172119140625	-876.5027465820315	187.6781921386719	1450.0400390625	-931.3074951171877	195.7434387207032	1460.520263671875	-859.3131103515627	272.3485412597657	1470.952026367188	-931.2023925781252	-219.6595458984376	990.8385009765627	-1114.765258789063	-225.5357818603516	1011.708984375	-883.7210083007815	-414.9936523437501	1056.183227539063	-1010.904846191406	-413.1252441406251	1022.606689453125	-1037.615356445313	-417.5623779296876	1026.491088867188	-978.782653808594	-294.9951171875001	825.0821533203127	-1176.071533203125	-255.2834930419922	750.9600219726564	-1171.637084960938	-207.3375396728516	758.8889770507814	-1161.365356445313	-280.4089355468751	695.7249145507814	-1163.25732421875	-298.0406799316407	522.7664794921876	-1121.083618164063	-264.3562927246094	519.2112426757814	-1002.107055664063	-271.1450500488282	339.8903808593751	-1017.867797851563	-284.1720581054688	289.6145324707032	-1090.245361328125	-266.1787719726563	289.3327026367188	-1045.238891601563	-281.4298400878907	215.3105926513672	-1011.494873046875	-336.2942810058594	117.9270782470703	-1050.322143554688	-312.9907226562501	136.4796752929688	-965.4107055664065	-191.8975830078125	63.01903152465822	-978.8345336914065	-190.0756530761719	58.92865371704103	-1023.225463867188	-237.5826263427735	43.92363739013673	-1068.97265625	-224.6609954833985	842.0526123046877	-786.3690185546877	-160.5906524658203	825.4855957031252	-793.7028808593752	-137.850341796875	847.1495361328127	-801.4437255859377	-127.8366012573242	748.7800903320314	-793.2388916015627	-28.76380348205567	639.0014038085939	-810.567810058594	-10.41181468963623	636.8275146484376	-934.1328125000002	69.92990112304689	550.4143676757814	-828.6314697265627	65.1426239013672	450.7318725585939	-781.8609619140627	100.3425827026367	473.1959838867189	-802.1271972656252	131.8041076660157	435.7235412597657	-836.088317871094	160.5382232666016	278.9638671875001	-797.3668212890627	170.9272003173828	297.0700073242188	-886.8657836914065	120.8533096313477	220.6132049560547	-843.3259887695315	318.2378540039063	285.2630004882813	-879.7125244140627	322.5520629882813	296.2091369628907	-834.9978027343752	292.7026977539063	258.3181152343751	-774.9128417968752	-85.13419342041017	1374.7275390625	-1260.461059570313	
